<svg width="30.000000" height="30.000000" viewBox="0 0 30 30" fill="none" xmlns="http://www.w3.org/2000/svg" xmlns:xlink="http://www.w3.org/1999/xlink">
	<desc>
			Created with Pixso.
	</desc>
	<defs>
		<clipPath id="clip723_34">
			<rect id="akar-icons:instagram-fill" width="13.846154" height="13.846154" transform="translate(8.076904 8.076904)" fill="white" fill-opacity="0"/>
		</clipPath>
	</defs>
	<rect id="akar-icons:instagram-fill" width="13.846154" height="13.846154" transform="translate(8.076904 8.076904)" fill="#FFFFFF" fill-opacity="0"/>
	<g clip-path="url(#clip723_34)">
		<path id="Vector" d="M12.38 8.69C13.06 8.66 13.27 8.65 14.99 8.65C16.72 8.65 16.93 8.66 17.61 8.69C18.29 8.72 18.75 8.83 19.15 8.98C19.58 9.14 19.96 9.39 20.28 9.71C20.6 10.03 20.85 10.41 21.01 10.84C21.16 11.24 21.27 11.7 21.3 12.38C21.33 13.06 21.34 13.27 21.34 15C21.34 16.72 21.33 16.93 21.3 17.61C21.27 18.29 21.16 18.75 21.01 19.15C20.85 19.58 20.6 19.96 20.28 20.28C19.96 20.6 19.58 20.85 19.15 21.01C18.75 21.16 18.29 21.27 17.61 21.3C16.93 21.33 16.72 21.34 14.99 21.34C13.27 21.34 13.06 21.33 12.38 21.3C11.7 21.27 11.24 21.16 10.84 21.01C10.41 20.85 10.03 20.6 9.71 20.28C9.39 19.96 9.14 19.58 8.98 19.15C8.83 18.75 8.72 18.29 8.69 17.61C8.66 16.93 8.65 16.72 8.65 15C8.65 13.27 8.66 13.06 8.69 12.38C8.72 11.7 8.83 11.24 8.98 10.84C9.14 10.41 9.39 10.03 9.71 9.71C10.03 9.39 10.41 9.14 10.84 8.98C11.24 8.83 11.7 8.72 12.38 8.69L12.38 8.69ZM17.56 9.83C16.89 9.8 16.69 9.79 14.99 9.79C13.3 9.79 13.1 9.8 12.43 9.83C11.81 9.86 11.48 9.96 11.25 10.05C10.96 10.16 10.74 10.3 10.52 10.52C10.31 10.73 10.15 10.98 10.05 11.25C9.96 11.48 9.86 11.81 9.83 12.43C9.8 13.1 9.79 13.3 9.79 15C9.79 16.69 9.8 16.89 9.83 17.56C9.86 18.18 9.96 18.51 10.05 18.74C10.15 19.01 10.31 19.26 10.52 19.47C10.73 19.68 10.98 19.84 11.25 19.94C11.48 20.03 11.81 20.13 12.43 20.16C13.1 20.19 13.3 20.2 14.99 20.2C16.69 20.2 16.89 20.19 17.56 20.16C18.18 20.13 18.51 20.03 18.74 19.94C19.03 19.83 19.25 19.69 19.47 19.47C19.68 19.26 19.84 19.01 19.94 18.74C20.03 18.51 20.13 18.18 20.16 17.56C20.19 16.89 20.2 16.69 20.2 15C20.2 13.3 20.19 13.1 20.16 12.43C20.13 11.81 20.03 11.48 19.94 11.25C19.83 10.96 19.69 10.74 19.47 10.52C19.26 10.31 19.01 10.15 18.74 10.05C18.51 9.96 18.18 9.86 17.56 9.83ZM14.18 16.95C14.64 17.14 15.14 17.17 15.61 17.02C16.08 16.88 16.49 16.58 16.76 16.17C17.03 15.77 17.15 15.28 17.1 14.79C17.06 14.3 16.84 13.84 16.49 13.5C16.27 13.28 16 13.11 15.71 13C15.41 12.9 15.1 12.86 14.79 12.89C14.48 12.92 14.18 13.02 13.91 13.18C13.64 13.34 13.41 13.56 13.23 13.82C13.06 14.08 12.95 14.37 12.9 14.68C12.86 14.99 12.88 15.31 12.97 15.61C13.06 15.91 13.22 16.18 13.43 16.42C13.64 16.65 13.9 16.83 14.18 16.95ZM12.69 12.69C12.99 12.39 13.35 12.15 13.75 11.98C14.14 11.82 14.57 11.73 14.99 11.73C15.42 11.73 15.85 11.82 16.24 11.98C16.64 12.15 17 12.39 17.3 12.69C17.6 12.99 17.84 13.35 18.01 13.75C18.17 14.14 18.26 14.57 18.26 15C18.26 15.42 18.17 15.85 18.01 16.24C17.84 16.64 17.6 17 17.3 17.3C16.69 17.91 15.86 18.26 14.99 18.26C14.13 18.26 13.3 17.91 12.69 17.3C12.08 16.69 11.73 15.86 11.73 15C11.73 14.13 12.08 13.3 12.69 12.69ZM18.98 12.22C19.06 12.15 19.12 12.06 19.16 11.97C19.2 11.87 19.22 11.77 19.22 11.67C19.22 11.57 19.2 11.46 19.17 11.37C19.13 11.27 19.07 11.19 19 11.11C18.92 11.04 18.84 10.98 18.74 10.94C18.65 10.9 18.54 10.88 18.44 10.89C18.34 10.89 18.23 10.91 18.14 10.95C18.05 10.99 17.96 11.05 17.89 11.13C17.75 11.27 17.68 11.47 17.68 11.67C17.68 11.87 17.76 12.06 17.91 12.2C18.05 12.35 18.24 12.43 18.44 12.43C18.64 12.43 18.83 12.36 18.98 12.22Z" fill="#715B4B" fill-opacity="1.000000" fill-rule="evenodd"/>
	</g>
	<circle id="Ellipse 5" cx="15.000000" cy="15.000000" r="14.500000" stroke="#715B4B" stroke-opacity="1.000000" stroke-width="1.000000"/>
</svg>
