<svg width="30.000000" height="30.000000" viewBox="0 0 30 30" fill="none" xmlns="http://www.w3.org/2000/svg" xmlns:xlink="http://www.w3.org/1999/xlink">
	<desc>
			Created with Pixso.
	</desc>
	<defs>
		<clipPath id="clip723_39">
			<rect id="akar-icons:whatsapp-fill" width="13.846154" height="13.846154" transform="translate(8.076904 8.076904)" fill="white" fill-opacity="0"/>
		</clipPath>
	</defs>
	<rect id="akar-icons:whatsapp-fill" width="13.846154" height="13.846154" transform="translate(8.076904 8.076904)" fill="#FFFFFF" fill-opacity="0"/>
	<g clip-path="url(#clip723_39)">
		<path id="Vector" d="M18.12 16.37C17.95 16.28 17.1 15.87 16.95 15.81C16.79 15.75 16.68 15.73 16.56 15.9C16.45 16.07 16.12 16.46 16.02 16.57C15.92 16.68 15.82 16.7 15.65 16.61C15.48 16.53 14.92 16.35 14.27 15.76C13.76 15.31 13.41 14.75 13.32 14.57C13.22 14.4 13.3 14.31 13.39 14.22C13.47 14.15 13.56 14.02 13.65 13.92C13.73 13.82 13.76 13.75 13.82 13.64C13.88 13.52 13.85 13.42 13.8 13.34C13.76 13.25 13.42 12.41 13.28 12.06C13.14 11.73 13 11.78 12.89 11.77C12.79 11.77 12.68 11.76 12.56 11.76C12.45 11.76 12.26 11.81 12.1 11.98C11.95 12.15 11.5 12.56 11.5 13.41C11.5 14.25 12.12 15.07 12.2 15.18C12.29 15.3 13.41 17.03 15.13 17.77C15.54 17.95 15.86 18.05 16.11 18.13C16.52 18.26 16.89 18.24 17.19 18.2C17.52 18.15 18.2 17.79 18.35 17.38C18.49 16.98 18.49 16.64 18.45 16.57C18.4 16.5 18.29 16.46 18.12 16.37L18.12 16.37ZM14.99 20.64L14.99 20.64C13.97 20.64 12.96 20.37 12.09 19.85L11.88 19.72L9.72 20.29L10.3 18.18L10.16 17.97C9.59 17.06 9.29 16.01 9.29 14.93C9.29 11.79 11.85 9.23 14.99 9.23C16.52 9.23 17.95 9.83 19.02 10.9C19.56 11.43 19.98 12.06 20.26 12.75C20.55 13.45 20.7 14.19 20.69 14.94C20.69 18.08 18.13 20.64 14.99 20.64ZM19.84 10.08C19.21 9.44 18.45 8.94 17.62 8.59C16.79 8.25 15.89 8.07 14.99 8.07C11.21 8.07 8.13 11.15 8.13 14.93C8.13 16.14 8.44 17.32 9.05 18.36L8.07 21.92L11.71 20.96C12.71 21.51 13.84 21.8 14.99 21.8L14.99 21.8C18.77 21.8 21.85 18.72 21.85 14.94C21.85 14.04 21.68 13.14 21.33 12.31C20.99 11.48 20.48 10.72 19.84 10.08Z" fill="#715B4B" fill-opacity="1.000000" fill-rule="evenodd"/>
	</g>
	<circle id="Ellipse 6" cx="15.000000" cy="15.000000" r="14.500000" stroke="#715B4B" stroke-opacity="1.000000" stroke-width="1.000000"/>
</svg>
