<svg width="30.000000" height="30.000000" viewBox="0 0 30 30" fill="none" xmlns="http://www.w3.org/2000/svg" xmlns:xlink="http://www.w3.org/1999/xlink">
	<desc>
			Created with Pixso.
	</desc>
	<defs>
		<clipPath id="clip1501_2">
			<rect width="18.000000" height="18.000000" transform="translate(5.000000 6.000000)" fill="white" fill-opacity="0"/>
		</clipPath>
	</defs>
	<rect width="18.000000" height="18.000000" transform="translate(5.000000 6.000000)" fill="#FFFFFF" fill-opacity="0"/>
	<g clip-path="url(#clip1501_2)">
		<path d="M20.88 10.25L18.79 20.11C18.65 20.81 18.22 20.98 17.64 20.65L12.65 16.97C12.63 16.95 12.61 16.94 12.6 16.91C12.59 16.89 12.58 16.87 12.58 16.85C12.58 16.82 12.59 16.8 12.6 16.78C12.61 16.76 12.63 16.74 12.65 16.72L18.41 11.52C18.67 11.29 18.35 11.17 18.01 11.38L10.77 15.95C10.75 15.96 10.73 15.97 10.7 15.97C10.67 15.98 10.65 15.97 10.62 15.97L7.55 14.99C6.87 14.8 6.87 14.33 7.71 13.99L20 9.25C20.09 9.21 20.2 9.18 20.31 9.17C20.73 9.17 21.06 9.55 20.88 10.25Z" stroke="#715B4B" stroke-opacity="1.000000" stroke-width="1.000000" stroke-linejoin="round"/>
	</g>
	<circle cx="15.000000" cy="15.000000" r="14.500000" stroke="#715B4B" stroke-opacity="1.000000" stroke-width="1.000000"/>
</svg>
