<svg width="43.000000" height="43.000000" viewBox="0 0 43 43" fill="none" xmlns="http://www.w3.org/2000/svg" xmlns:xlink="http://www.w3.org/1999/xlink">
	<desc>
			Created with Pixso.
	</desc>
	<defs/>
	<path id="Vector" d="M21 -0.88C8.91 -0.88 -0.88 8.91 -0.88 21C-0.88 33.08 8.91 42.87 21 42.87C33.08 42.87 42.87 33.08 42.87 21C42.87 8.91 33.08 -0.88 21 -0.88ZM28.03 21.33L17.37 29.09C17.31 29.13 17.24 29.16 17.17 29.16C17.1 29.17 17.02 29.15 16.96 29.12C16.9 29.09 16.84 29.04 16.8 28.98C16.77 28.92 16.75 28.85 16.75 28.77L16.75 13.27C16.75 13.19 16.77 13.12 16.8 13.06C16.84 13 16.9 12.95 16.96 12.92C17.02 12.88 17.1 12.87 17.17 12.87C17.24 12.88 17.31 12.91 17.37 12.95L28.03 20.7C28.08 20.74 28.12 20.78 28.15 20.84C28.18 20.89 28.19 20.96 28.19 21.02C28.19 21.08 28.18 21.14 28.15 21.19C28.12 21.25 28.08 21.3 28.03 21.33Z" fill="#000000" fill-opacity="1.000000" fill-rule="nonzero"/>
</svg>
