<svg width="52.000000" height="52.000000" viewBox="0 0 52 52" fill="none" xmlns="http://www.w3.org/2000/svg" xmlns:xlink="http://www.w3.org/1999/xlink">
	<desc>
			Created with Pixso.
	</desc>
	<defs>
		<clipPath id="clip723_76">
			<rect id="akar-icons:whatsapp-fill" width="24.000000" height="24.000000" transform="translate(14.000000 14.000000)" fill="white" fill-opacity="0"/>
		</clipPath>
	</defs>
	<rect id="akar-icons:whatsapp-fill" width="24.000000" height="24.000000" transform="translate(14.000000 14.000000)" fill="#FFFFFF" fill-opacity="0"/>
	<g clip-path="url(#clip723_76)">
		<path id="Vector" d="M31.41 28.38C31.11 28.23 29.65 27.51 29.38 27.41C29.11 27.31 28.91 27.26 28.71 27.56C28.51 27.86 27.94 28.53 27.77 28.72C27.6 28.92 27.42 28.95 27.13 28.8C26.83 28.65 25.87 28.34 24.74 27.32C23.85 26.54 23.26 25.56 23.08 25.27C22.91 24.97 23.06 24.81 23.21 24.66C23.35 24.53 23.51 24.31 23.66 24.14C23.81 23.97 23.86 23.84 23.96 23.64C24.06 23.44 24.01 23.27 23.93 23.12C23.86 22.97 23.26 21.51 23.02 20.91C22.77 20.34 22.53 20.41 22.35 20.41C22.17 20.4 21.98 20.39 21.78 20.39C21.58 20.39 21.26 20.47 20.99 20.77C20.71 21.06 19.95 21.78 19.95 23.25C19.95 24.71 21.01 26.12 21.16 26.32C21.31 26.52 23.25 29.52 26.23 30.81C26.94 31.11 27.5 31.3 27.93 31.43C28.64 31.66 29.29 31.63 29.8 31.55C30.37 31.47 31.56 30.83 31.81 30.14C32.05 29.44 32.05 28.85 31.98 28.72C31.91 28.6 31.71 28.53 31.41 28.38L31.41 28.38ZM25.99 35.78L25.98 35.78C24.21 35.78 22.48 35.3 20.95 34.4L20.59 34.19L16.85 35.17L17.85 31.52L17.61 31.15C16.62 29.57 16.1 27.75 16.1 25.89C16.11 20.44 20.54 16 25.99 16C28.63 16 31.11 17.03 32.98 18.9C33.9 19.82 34.63 20.91 35.13 22.11C35.62 23.31 35.88 24.6 35.87 25.89C35.87 31.35 31.44 35.78 25.99 35.78ZM34.4 17.48C33.3 16.37 31.99 15.49 30.54 14.9C29.1 14.3 27.55 13.99 25.99 14C19.43 14 14.1 19.33 14.1 25.89C14.09 27.98 14.64 30.03 15.68 31.83L14 38L20.3 36.34C22.04 37.29 24 37.79 25.98 37.79L25.99 37.79C32.54 37.79 37.88 32.45 37.88 25.9C37.88 24.33 37.58 22.79 36.98 21.34C36.39 19.9 35.51 18.59 34.4 17.48Z" fill="#F6F6F6" fill-opacity="1.000000" fill-rule="evenodd"/>
	</g>
	<circle id="Ellipse 6" cx="26.000000" cy="26.000000" r="25.500000" stroke="#F6F6F6" stroke-opacity="1.000000" stroke-width="1.000000"/>
</svg>
