<svg width="52.000000" height="52.000000" viewBox="0 0 52 52" fill="none" xmlns="http://www.w3.org/2000/svg" xmlns:xlink="http://www.w3.org/1999/xlink">
	<desc>
			Created with Pixso.
	</desc>
	<defs>
		<clipPath id="clip1501_10">
			<rect width="31.200001" height="31.200001" transform="translate(8.666626 10.399902)" fill="white" fill-opacity="0"/>
		</clipPath>
	</defs>
	<rect width="31.200001" height="31.200001" transform="translate(8.666626 10.399902)" fill="#FFFFFF" fill-opacity="0"/>
	<g clip-path="url(#clip1501_10)">
		<path d="M36.2 17.77L32.58 34.86C32.32 36.08 31.59 36.37 30.57 35.8L21.92 29.41C21.89 29.39 21.86 29.36 21.84 29.32C21.82 29.29 21.81 29.24 21.81 29.2C21.81 29.16 21.82 29.12 21.84 29.08C21.86 29.05 21.89 29.02 21.92 28.99L31.91 19.97C32.37 19.57 31.81 19.37 31.22 19.74L18.68 27.65C18.64 27.67 18.6 27.69 18.55 27.69C18.51 27.7 18.46 27.69 18.42 27.68L13.09 26C11.91 25.65 11.91 24.84 13.36 24.26L34.66 16.04C34.83 15.96 35.01 15.92 35.2 15.91C35.94 15.91 36.5 16.56 36.2 17.77Z" stroke="#F6F6F6" stroke-opacity="1.000000" stroke-width="1.000000" stroke-linejoin="round"/>
	</g>
	<circle cx="26.000000" cy="26.000000" r="25.500000" stroke="#F6F6F6" stroke-opacity="1.000000" stroke-width="1.000000"/>
</svg>
