<svg width="52.000000" height="52.000000" viewBox="0 0 52 52" fill="none" xmlns="http://www.w3.org/2000/svg" xmlns:xlink="http://www.w3.org/1999/xlink">
	<desc>
			Created with Pixso.
	</desc>
	<defs>
		<clipPath id="clip723_71">
			<rect id="akar-icons:instagram-fill" width="24.000000" height="24.000000" transform="translate(14.000000 14.000000)" fill="white" fill-opacity="0"/>
		</clipPath>
	</defs>
	<rect id="akar-icons:instagram-fill" width="24.000000" height="24.000000" transform="translate(14.000000 14.000000)" fill="#FFFFFF" fill-opacity="0"/>
	<g clip-path="url(#clip723_71)">
		<path id="Vector" d="M21.46 15.06C22.63 15.01 23.01 15 26 15C28.98 15 29.36 15.01 30.53 15.06C31.7 15.11 32.5 15.3 33.2 15.57C33.93 15.85 34.6 16.28 35.15 16.84C35.71 17.39 36.14 18.06 36.42 18.79C36.69 19.49 36.88 20.29 36.93 21.46C36.98 22.63 37 23.01 37 26C37 28.98 36.98 29.36 36.93 30.53C36.88 31.7 36.69 32.5 36.42 33.2C36.14 33.93 35.71 34.6 35.15 35.15C34.6 35.71 33.93 36.14 33.2 36.42C32.5 36.69 31.7 36.87 30.53 36.93C29.36 36.98 28.98 37 26 37C23.01 37 22.63 36.98 21.46 36.93C20.29 36.88 19.49 36.69 18.79 36.42C18.06 36.14 17.39 35.71 16.84 35.15C16.28 34.6 15.85 33.93 15.57 33.2C15.3 32.5 15.12 31.7 15.06 30.53C15.01 29.36 15 28.98 15 26C15 23.01 15.01 22.63 15.06 21.46C15.11 20.29 15.3 19.49 15.57 18.79C15.85 18.06 16.28 17.39 16.84 16.84C17.39 16.28 18.06 15.85 18.79 15.57C19.49 15.3 20.29 15.12 21.46 15.06L21.46 15.06ZM30.44 17.04C29.28 16.99 28.93 16.98 26 16.98C23.06 16.98 22.71 16.99 21.55 17.04C20.48 17.09 19.9 17.27 19.51 17.42C18.99 17.62 18.63 17.86 18.24 18.24C17.88 18.6 17.6 19.03 17.42 19.51C17.27 19.89 17.09 20.48 17.04 21.55C16.99 22.71 16.98 23.06 16.98 26C16.98 28.93 16.99 29.28 17.04 30.44C17.09 31.51 17.27 32.1 17.42 32.48C17.6 32.96 17.88 33.39 18.24 33.75C18.6 34.11 19.03 34.39 19.51 34.57C19.9 34.72 20.48 34.9 21.55 34.95C22.71 35 23.06 35.01 26 35.01C28.93 35.01 29.28 35 30.44 34.95C31.51 34.9 32.09 34.72 32.48 34.57C33 34.37 33.36 34.13 33.75 33.75C34.11 33.39 34.39 32.96 34.57 32.48C34.72 32.1 34.9 31.51 34.95 30.44C35 29.28 35.01 28.93 35.01 26C35.01 23.06 35 22.71 34.95 21.55C34.9 20.48 34.72 19.89 34.57 19.51C34.37 18.99 34.13 18.63 33.75 18.24C33.39 17.88 32.96 17.6 32.48 17.42C32.09 17.27 31.51 17.09 30.44 17.04ZM24.59 29.39C25.37 29.71 26.25 29.76 27.06 29.51C27.88 29.26 28.58 28.74 29.05 28.04C29.52 27.33 29.74 26.48 29.65 25.64C29.57 24.79 29.19 24 28.59 23.4C28.21 23.02 27.74 22.72 27.23 22.54C26.72 22.36 26.18 22.29 25.64 22.34C25.1 22.4 24.57 22.57 24.11 22.85C23.64 23.13 23.25 23.51 22.94 23.96C22.64 24.41 22.45 24.92 22.37 25.46C22.29 25.99 22.33 26.54 22.48 27.06C22.64 27.58 22.91 28.06 23.28 28.46C23.64 28.86 24.09 29.18 24.59 29.39ZM22 22C22.52 21.47 23.15 21.06 23.83 20.77C24.52 20.49 25.25 20.34 26 20.34C26.74 20.34 27.47 20.49 28.16 20.77C28.84 21.06 29.47 21.47 29.99 22C30.52 22.52 30.93 23.15 31.22 23.83C31.5 24.52 31.65 25.25 31.65 26C31.65 26.74 31.5 27.47 31.22 28.16C30.93 28.84 30.52 29.47 29.99 29.99C28.93 31.05 27.49 31.65 26 31.65C24.5 31.65 23.06 31.05 22 29.99C20.94 28.93 20.34 27.49 20.34 26C20.34 24.5 20.94 23.06 22 22ZM32.9 21.18C33.03 21.06 33.14 20.91 33.21 20.75C33.28 20.59 33.32 20.41 33.32 20.23C33.33 20.05 33.29 19.87 33.22 19.71C33.16 19.54 33.06 19.39 32.93 19.27C32.8 19.14 32.65 19.04 32.49 18.97C32.32 18.9 32.14 18.87 31.97 18.87C31.79 18.88 31.61 18.91 31.45 18.99C31.28 19.06 31.14 19.16 31.01 19.29C30.77 19.55 30.64 19.88 30.65 20.23C30.65 20.58 30.79 20.91 31.04 21.16C31.29 21.4 31.62 21.54 31.97 21.55C32.31 21.55 32.65 21.42 32.9 21.18Z" fill="#F6F6F6" fill-opacity="1.000000" fill-rule="evenodd"/>
	</g>
	<circle id="Ellipse 5" cx="26.000000" cy="26.000000" r="25.500000" stroke="#F6F6F6" stroke-opacity="1.000000" stroke-width="1.000000"/>
</svg>
