<svg width="30.000000" height="30.000000" viewBox="0 0 30 30" fill="none" xmlns="http://www.w3.org/2000/svg" xmlns:xlink="http://www.w3.org/1999/xlink">
	<desc>
			Created with Pixso.
	</desc>
	<defs>
		<clipPath id="clip793_635">
			<rect id="ep:arrow-down" width="16.666666" height="16.666666" transform="translate(23.333008 6.666748) rotate(90.000000)" fill="white" fill-opacity="0"/>
		</clipPath>
	</defs>
	<circle id="Ellipse 6" r="15.000000" transform="matrix(-1 -1 1.22465e-16 -1.22465e-16 15 15)" fill="#F6F6F6" fill-opacity="1.000000"/>
	<rect id="ep:arrow-down" width="16.666666" height="16.666666" transform="translate(23.333008 6.666748) rotate(90.000000)" fill="#FFFFFF" fill-opacity="0"/>
	<g clip-path="url(#clip793_635)">
		<path id="Vector" d="M17.78 20.2L12.71 15L17.78 9.79C17.87 9.7 17.92 9.57 17.92 9.44C17.92 9.31 17.87 9.19 17.78 9.09C17.74 9.05 17.68 9.01 17.62 8.99C17.57 8.96 17.5 8.95 17.44 8.95C17.38 8.95 17.32 8.96 17.26 8.99C17.2 9.01 17.15 9.05 17.1 9.09L11.7 14.63C11.61 14.73 11.56 14.86 11.56 15C11.56 15.13 11.61 15.26 11.7 15.36L17.1 20.9C17.15 20.94 17.2 20.98 17.26 21C17.32 21.03 17.38 21.04 17.44 21.04C17.5 21.04 17.57 21.03 17.63 21C17.68 20.98 17.74 20.94 17.78 20.9C17.87 20.8 17.92 20.68 17.92 20.55C17.92 20.42 17.87 20.29 17.78 20.2L17.78 20.2Z" fill="#323232" fill-opacity="1.000000" fill-rule="nonzero"/>
	</g>
</svg>
